<?xml version="1.0" encoding="UTF-8" standalone="no"?>

<svg
   xmlns:svg="http://www.w3.org/2000/svg"
   xmlns="http://www.w3.org/2000/svg"
   xmlns:xlink="http://www.w3.org/1999/xlink"
   version="1.0"
   viewBox="0 0 148 57"
   id="svgroot">

<defs>
  <filter id="shadow">
    <feDropShadow dx="0.6" dy="0.6" stdDeviation="0.5" flood-opacity="0.5"/>
  </filter>

  <filter id="darken">
    <feComponentTransfer>
      <feFuncR type="linear" slope="0.5" />
      <feFuncG type="linear" slope="0.5" />
      <feFuncB type="linear" slope="0.5" />
    </feComponentTransfer>
  </filter>
</defs>

<g id="apron" filter="url(#shadow)" >

  <path id="strap"
        d="M 19,12
           l 0,-8
           l 12,0
           l 0,8
          "
        stroke-width="2"
        stroke-linecap="round"
        stroke-linejoin="round"
        stroke="#880b0b"
        fill="none"
        />

  <path id="main-part"
        d="M 12,12
           l -5,36
           l 36,0
           l -5,-36
           z
          "
        stroke-width="2"
        stroke-linecap="round"
        stroke-linejoin="round"
        stroke="#880b0b"
        fill="#f2bbbb"
        filter="url(#shadow)" />
</g>

<g
   aria-label="Apron"
   id="caption"
   transform="translate(50,48)"
   fill="#880b0b"
   filter="url(#shadow)">
  <path
     d="m 21.735,-2.17 q 0.105,0.315 0.105,0.665 0,0.7 -0.49,1.155 -0.455,0.455 -1.085,0.455 -0.49,0 -0.91,-0.28 -0.385,-0.315 -0.63,-0.84 L 16.555,-6.16 H 5.74 L 3.605,-0.98 Q 3.43,-0.455 3.01,-0.175 2.625,0.105 2.135,0.105 1.4,0.105 1.015,-0.28 0.63,-0.665 0.63,-1.33 q 0,-0.14 0.07,-0.56 l 8.925,-21.63 q 0.245,-0.56 0.665,-0.84 0.455,-0.315 1.015,-0.245 0.525,0 0.945,0.28 0.42,0.28 0.595,0.805 z M 7.07,-9.345 h 8.155 l -4.095,-9.8 z"
     id="letter-A" />
  <path
     d="m 34.160007,-18.655 q 2.38,0 4.305,1.225 1.925,1.19 3.01,3.36 1.12,2.17 1.12,4.9 0,2.73 -1.12,4.9 -1.085,2.135 -3.01,3.36 -1.925,1.225 -4.235,1.225 -1.82,0 -3.395,-0.805 -1.575,-0.805 -2.555,-1.96 v 7.77 q 0,0.7 -0.49,1.19 -0.455,0.49 -1.19,0.49 -0.7,0 -1.19,-0.49 -0.455,-0.455 -0.455,-1.19 v -22.015 q 0,-0.735 0.455,-1.225 0.455,-0.49 1.19,-0.49 0.735,0 1.19,0.49 0.49,0.49 0.49,1.225 v 1.015 q 0.84,-1.225 2.45,-2.1 1.61,-0.875 3.43,-0.875 z m -0.385,15.89 q 1.61,0 2.905,-0.84 1.295,-0.84 1.995,-2.275 0.735,-1.47 0.735,-3.29 0,-1.82 -0.735,-3.255 -0.7,-1.47 -1.995,-2.31 -1.295,-0.84 -2.905,-0.84 -1.645,0 -2.94,0.84 -1.295,0.805 -2.03,2.275 -0.7,1.47 -0.7,3.29 0,1.82 0.7,3.29 0.735,1.47 2.03,2.31 1.295,0.805 2.94,0.805 z"
     id="letter-p" />
  <path
     d="m 55.580018,-18.76 q 0.91,0 1.575,0.49 0.665,0.455 0.665,1.155 0,0.84 -0.455,1.295 -0.42,0.42 -1.05,0.42 -0.315,0 -0.945,-0.21 -0.735,-0.245 -1.155,-0.245 -1.085,0 -2.135,0.77 -1.015,0.735 -1.68,2.065 -0.63,1.295 -0.63,2.905 v 8.435 q 0,0.7 -0.49,1.19 -0.455,0.49 -1.19,0.49 -0.735,0 -1.19,-0.455 -0.455,-0.49 -0.455,-1.225 v -14.98 q 0,-0.7 0.455,-1.19 0.49,-0.49 1.19,-0.49 0.735,0 1.19,0.49 0.49,0.49 0.49,1.19 v 1.785 q 0.77,-1.715 2.31,-2.765 1.54,-1.085 3.5,-1.12 z"
     id="letter-r" />
  <path
     d="m 77.490042,-9.17 q 0,2.73 -1.225,4.9 -1.225,2.17 -3.36,3.395 -2.1,1.225 -4.655,1.225 -2.555,0 -4.69,-1.225 -2.1,-1.225 -3.325,-3.395 -1.225,-2.17 -1.225,-4.9 0,-2.73 1.225,-4.935 1.225,-2.205 3.325,-3.43 2.135,-1.225 4.69,-1.225 2.555,0 4.655,1.225 2.135,1.225 3.36,3.43 1.225,2.205 1.225,4.935 z m -3.325,0 q 0,-1.89 -0.805,-3.36 -0.77,-1.505 -2.135,-2.31 -1.33,-0.84 -2.975,-0.84 -1.645,0 -3.01,0.84 -1.33,0.805 -2.135,2.31 -0.77,1.47 -0.77,3.36 0,1.855 0.77,3.325 0.805,1.47 2.135,2.31 1.365,0.805 3.01,0.805 1.645,0 2.975,-0.805 1.365,-0.84 2.135,-2.31 0.805,-1.47 0.805,-3.325 z"
     id="letter-o" />
  <path
     d="m 90.685072,-18.76 q 6.3,0 6.3,7.56 v 9.52 q 0,0.7 -0.49,1.19 -0.455,0.49 -1.19,0.49 -0.7,0 -1.19,-0.49 -0.455,-0.49 -0.455,-1.19 v -9.485 q 0,-2.065 -0.945,-3.29 -0.945,-1.225 -3.08,-1.225 -1.4,0 -2.555,0.63 -1.12,0.595 -1.785,1.645 -0.63,1.015 -0.63,2.24 v 9.485 q 0,0.7 -0.49,1.19 -0.455,0.49 -1.19,0.49 -0.735,0 -1.19,-0.455 -0.455,-0.49 -0.455,-1.225 v -14.98 q 0,-0.7 0.455,-1.19 0.49,-0.49 1.19,-0.49 0.735,0 1.19,0.49 0.49,0.49 0.49,1.19 v 1.225 q 0.91,-1.4 2.52,-2.345 1.645,-0.98 3.5,-0.98 z"
     id="letter-n" />
</g>
</svg>

